<svg width="12" height="16" viewBox="0 0 12 16" fill="none" xmlns="http://www.w3.org/2000/svg">
<path fill-rule="evenodd" clip-rule="evenodd" d="M3.02719 0.738813C4.89997 -0.262414 7.20193 -0.244914 9.05714 0.784654C10.8941 1.83519 12.0106 3.71009 12.0002 5.72696C11.9574 7.7306 10.7603 9.61401 9.26379 11.07C8.40008 11.9141 7.43387 12.6606 6.38489 13.294C6.27686 13.3515 6.15852 13.39 6.03572 13.4076C5.91753 13.4029 5.80243 13.3708 5.7008 13.3141C4.09933 12.3622 2.69436 11.1472 1.55347 9.72755C0.598805 8.54248 0.0564311 7.11075 0 5.62678C-0.00123932 3.60604 1.1544 1.74004 3.02719 0.738813ZM4.10964 6.46325C4.42467 7.17784 5.16826 7.64395 5.99321 7.64396C6.53366 7.64753 7.05317 7.44835 7.436 7.0908C7.81883 6.73325 8.03316 6.24704 8.03125 5.7405C8.03413 4.96732 7.53941 4.26877 6.77809 3.97101C6.01676 3.67325 5.139 3.83502 4.55464 4.38079C3.97029 4.92655 3.79462 5.74866 4.10964 6.46325Z" fill="#5AD439"/>
<ellipse opacity="0.4" cx="5.9999" cy="14.9849" rx="4.28583" ry="0.78868" fill="#5AD439"/>
</svg>
