<svg width="46" height="46" viewBox="0 0 46 46" fill="none" xmlns="http://www.w3.org/2000/svg">
<path d="M12.2326 11.4388C15.1837 9.07821 18.9269 7.66664 22.9998 7.66664C27.0727 7.66664 30.8159 9.07821 33.767 11.4388L36.5527 8.65319L39.2632 11.3637L36.4776 14.1494C38.8381 17.1004 40.2497 20.8437 40.2497 24.9166C40.2497 34.4435 32.5268 42.1665 22.9998 42.1665C13.4729 42.1665 5.74988 34.4435 5.74988 24.9166C5.74988 20.8437 7.16144 17.1004 9.52205 14.1494L6.73642 11.3637L9.44698 8.65319L12.2326 11.4388ZM24.9165 22.9999V14.3658L15.3332 26.8332H21.0831V35.4582L30.6664 22.9999H24.9165ZM15.3332 1.91667H30.6664V5.74999H15.3332V1.91667Z" fill="#FF004F"/>
</svg>
