<svg width="19" height="21" viewBox="0 0 19 21" fill="none" xmlns="http://www.w3.org/2000/svg">
<path fill-rule="evenodd" clip-rule="evenodd" d="M15.086 5.83818C15.086 9.06252 12.4722 11.6764 9.24784 11.6764C6.0235 11.6764 3.40966 9.06252 3.40966 5.83818C3.40966 2.61384 6.0235 0 9.24784 0C12.4722 0 15.086 2.61384 15.086 5.83818ZM13.0554 5.83818C13.0554 7.94101 11.3507 9.6457 9.24784 9.6457C7.14501 9.6457 5.44033 7.94101 5.44033 5.83818C5.44033 3.73535 7.14501 2.03067 9.24784 2.03067C11.3507 2.03067 13.0554 3.73535 13.0554 5.83818Z" fill="white"/>
<path d="M0.0208306 20.0253C-0.0552452 20.2745 0.0837563 20.5352 0.328638 20.6243L1.27613 20.9692C1.56373 21.0739 1.8767 20.9014 1.96646 20.6088C2.92182 17.4944 5.82039 15.23 9.24783 15.23C12.6753 15.23 15.5739 17.4944 16.5292 20.6088C16.619 20.9014 16.932 21.0739 17.2196 20.9692L18.167 20.6243C18.4119 20.5352 18.5509 20.2745 18.4749 20.0253C17.2688 16.0738 13.594 13.1994 9.24783 13.1994C4.90169 13.1994 1.22691 16.0738 0.0208306 20.0253Z" fill="white"/>
</svg>
