<svg width="24" height="21" viewBox="0 0 24 21" fill="none" xmlns="http://www.w3.org/2000/svg">
<path fill-rule="evenodd" clip-rule="evenodd" d="M12.1447 0.174461C11.8656 -0.0581525 11.4601 -0.0581548 11.181 0.174461L0.363114 9.18936C-0.357992 9.79028 0.0669373 10.964 1.00561 10.964H2.65488L3.06134 19.093C3.11475 20.1613 3.99645 21 5.06604 21H9.90656C10.3223 21 10.6593 20.663 10.6593 20.2473V13.9748C10.6593 13.6976 10.8839 13.473 11.1611 13.473H12.1647C12.4418 13.473 12.6665 13.6976 12.6665 13.9748V20.2473C12.6665 20.663 13.0035 21 13.4192 21H18.2597C19.3293 21 20.211 20.1613 20.2644 19.093L20.6708 10.964H22.3201C23.2588 10.964 23.6837 9.79028 22.9626 9.18936L12.1447 0.174461Z" fill="#FF004F"/>
</svg>
