<svg width="43" height="35" viewBox="0 0 43 35" fill="none" xmlns="http://www.w3.org/2000/svg">
<g filter="url(#filter0_d_27_598)">
<path d="M37.9209 18.3377C38.3526 17.9479 38.364 17.2741 37.9457 16.8698L24.5998 3.97095C23.9622 3.3547 22.8971 3.80653 22.8971 4.69327V10.0778C17.9085 10.0007 14.1606 11.3055 11.3754 13.305C8.54657 15.3358 6.74421 18.0589 5.63356 20.6984C4.52394 23.3353 4.09632 25.9078 4.02823 27.6716C3.99465 28.5415 4.04652 29.2594 4.17116 29.698C4.20301 29.8101 4.24605 29.9277 4.30792 30.0318C4.36238 30.1233 4.47759 30.2828 4.68692 30.3494C4.9388 30.4295 5.15259 30.3267 5.2765 30.2203C5.38834 30.1243 5.46349 30.0005 5.5155 29.8964L5.5221 29.8832L5.52742 29.8708L5.52792 29.8697L5.5292 29.8668L5.53945 29.8445C5.54936 29.8233 5.56548 29.7897 5.5883 29.7449C5.63394 29.6554 5.70631 29.5213 5.80923 29.3522C6.01512 29.014 6.34287 28.5365 6.82295 27.9964C7.7819 26.9176 9.35164 25.5854 11.7825 24.6131C13.1661 24.0596 15.4725 23.8077 17.7338 23.767C19.8917 23.7281 21.9043 23.8824 22.8971 24.1013V29.6437C22.8971 30.5142 23.9288 30.9727 24.5749 30.3893L37.9209 18.3377Z" fill="white"/>
<path d="M33.8094 16.9041C34.7734 15.7834 33.8094 14.1849 33.8094 14.1849L32.1459 11.268L24.5998 3.97095C23.9622 3.3547 22.8971 3.80653 22.8971 4.69327V10.0778C17.9085 10.0007 14.1606 11.3055 11.3754 13.305C8.54657 15.3358 6.74421 18.0589 5.63356 20.6984C4.52394 23.3353 4.09632 25.9078 4.02823 27.6716C3.99465 28.5415 4.04652 29.2594 4.17116 29.698C4.20301 29.8101 4.24605 29.9277 4.30792 30.0318C4.36238 30.1233 4.47759 30.2828 4.68692 30.3494C4.9388 30.4295 5.15259 30.3267 5.2765 30.2203C5.38834 30.1243 5.46349 30.0005 5.5155 29.8964L5.5221 29.8832L5.52742 29.8708L5.52792 29.8697L5.5292 29.8668L5.53945 29.8445C5.54936 29.8233 5.56548 29.7897 5.5883 29.7449C5.63394 29.6554 5.70631 29.5213 5.80923 29.3522C6.01512 29.014 6.34287 28.5365 6.82295 27.9964C7.7819 26.9176 13.1027 23.1422 16.1163 21.6353C18.6277 20.1285 22.8971 19.1239 22.8971 19.1239V25.1513C22.8971 26.0218 23.9288 26.4803 24.5749 25.8969L33.8094 16.9041Z" fill="white"/>
</g>
<defs>
<filter id="filter0_d_27_598" x="0" y="-1.71546e-05" width="42.2699" height="35" filterUnits="userSpaceOnUse" color-interpolation-filters="sRGB">
<feFlood flood-opacity="0" result="BackgroundImageFix"/>
<feColorMatrix in="SourceAlpha" type="matrix" values="0 0 0 0 0 0 0 0 0 0 0 0 0 0 0 0 0 0 127 0" result="hardAlpha"/>
<feOffset dy="0.33"/>
<feGaussianBlur stdDeviation="2"/>
<feColorMatrix type="matrix" values="0 0 0 0 0 0 0 0 0 0 0 0 0 0 0 0 0 0 0.1 0"/>
<feBlend mode="normal" in2="BackgroundImageFix" result="effect1_dropShadow_27_598"/>
<feBlend mode="normal" in="SourceGraphic" in2="effect1_dropShadow_27_598" result="shape"/>
</filter>
</defs>
</svg>
