<svg width="18" height="21" viewBox="0 0 18 21" fill="none" xmlns="http://www.w3.org/2000/svg">
<path d="M17.3984 14.6797C17.6328 14.9141 17.75 15.2266 17.75 15.5C17.7109 16.1641 17.2422 16.75 16.4609 16.75H1.5C0.71875 16.75 0.25 16.1641 0.25 15.5C0.210938 15.2266 0.328125 14.9141 0.5625 14.6797C1.30469 13.8594 2.75 12.6484 2.75 8.625C2.75 5.61719 4.85938 3.19531 7.75 2.57031V1.75C7.75 1.08594 8.29688 0.5 9 0.5C9.66406 0.5 10.2109 1.08594 10.2109 1.75V2.57031C13.1016 3.19531 15.2109 5.61719 15.2109 8.625C15.2109 12.6484 16.6562 13.8594 17.3984 14.6797ZM2.86719 14.875H15.0938C14.2734 13.8203 13.375 11.9844 13.3359 8.66406C13.3359 8.66406 13.375 8.66406 13.375 8.625C13.375 6.24219 11.3828 4.25 9 4.25C6.57812 4.25 4.625 6.24219 4.625 8.625C4.625 8.66406 4.625 8.66406 4.625 8.66406C4.58594 11.9844 3.6875 13.8203 2.86719 14.875ZM9 20.5C7.59375 20.5 6.5 19.4062 6.5 18H11.4609C11.4609 19.4062 10.3672 20.5 9 20.5Z" fill="white"/>
</svg>
