<svg width="21" height="20" viewBox="0 0 21 20" fill="none" xmlns="http://www.w3.org/2000/svg">
<path d="M10.0781 1.75C15.5859 1.75 20.0781 5.42188 20.0781 9.875C20.0781 14.3672 15.5859 18 10.0781 18C8.78906 18 7.57812 17.8047 6.44531 17.4531C5.3125 18.2734 3.39844 19.25 1.01562 19.25C0.625 19.25 0.273438 19.0547 0.117188 18.7031C0 18.3516 0.0390625 17.9609 0.3125 17.6875C0.351562 17.6875 1.5625 16.3594 2.10938 14.8359C0.820312 13.4688 0.078125 11.75 0.078125 9.875C0.078125 5.42188 4.53125 1.75 10.0781 1.75ZM10.0781 16.125C14.5312 16.125 18.2031 13.3516 18.2031 9.875C18.2031 6.4375 14.5312 3.625 10.0781 3.625C5.58594 3.625 1.95312 6.4375 1.95312 9.875C1.95312 11.5547 2.77344 12.8047 3.47656 13.5469L4.29688 14.4062L3.86719 15.5C3.67188 16.0469 3.39844 16.5938 3.08594 17.0625C4.02344 16.75 4.80469 16.3203 5.35156 15.9297L6.09375 15.3828L6.99219 15.6562C7.96875 15.9688 9.02344 16.125 10.0781 16.125Z" fill="white"/>
</svg>
