<svg width="29" height="30" viewBox="0 0 29 30" fill="none" xmlns="http://www.w3.org/2000/svg">
<path d="M-0.000218874 4.71851L15.8296 21.0046L21.0582 16.4936L5.22836 0.207525L0.220049 2.14363e-06L-0.000218874 4.71851Z" fill="#FF004F"/>
<rect width="8.82717" height="1.39383" transform="matrix(0.761564 -0.657044 0.701052 0.721257 15.4739 22.0512)" fill="#FF004F"/>
<rect width="6.86558" height="1.39383" transform="matrix(0.761564 -0.657044 0.701052 0.721257 19.9338 25.2267)" fill="#FF004F"/>
<path d="M22.7956 25.3457L25.0364 23.4124L28.5976 27.0763C29.1673 27.6623 29.1274 28.5702 28.5086 29.104C27.8898 29.6379 26.9264 29.5956 26.3568 29.0096L22.7956 25.3457Z" fill="#FF004F"/>
<rect width="16.1131" height="2.78767" rx="1.39383" transform="matrix(0.761564 -0.657044 0.701052 0.721257 14.0673 25.852)" fill="#FF004F"/>
</svg>
