<svg width="29" height="30" viewBox="0 0 29 30" fill="none" xmlns="http://www.w3.org/2000/svg">
<g opacity="0.8">
<path d="M23.2118 10.6733L28.9999 4.71843L28.7797 2.69113e-07L23.7714 0.207519L18.3599 5.77505L23.2118 10.6733Z" fill="#FF004F"/>
<path d="M16.3741 17.7082L13.1703 21.0042L7.94186 16.4933L11.5221 12.8099L16.3741 17.7082Z" fill="#FF004F"/>
<rect width="8.82717" height="1.39383" transform="matrix(-0.761551 -0.657033 -0.70104 0.721244 13.5264 22.0504)" fill="#FF004F"/>
<rect width="6.86558" height="1.39383" transform="matrix(-0.761551 -0.657033 -0.70104 0.721244 9.06652 25.2262)" fill="#FF004F"/>
<path d="M6.20429 25.3446L3.96351 23.4114L0.402344 27.0752C-0.167265 27.6612 -0.127407 28.569 0.491367 29.1029C1.11014 29.6367 2.07352 29.5944 2.64312 29.0084L6.20429 25.3446Z" fill="#FF004F"/>
<rect width="16.1131" height="2.78767" rx="1.39383" transform="matrix(-0.761551 -0.657033 -0.70104 0.721244 14.9334 25.8513)" fill="#FF004F"/>
</g>
</svg>
