<svg width="32" height="32" viewBox="0 0 32 32" fill="none" xmlns="http://www.w3.org/2000/svg">
<path d="M16 10.9787C14.8954 10.9787 14 11.8741 14 12.9787C14 14.0833 14.8954 14.9787 16 14.9787C17.1046 14.9787 18 14.0833 18 12.9787C18 11.8741 17.1046 10.9787 16 10.9787ZM17.5 12.9787C17.5 13.8058 16.8271 14.4787 16 14.4787C15.5052 14.4787 15.0669 14.2368 14.7936 13.8663C15.4918 13.8425 16.0614 13.3157 16.1472 12.6349C16.3442 12.5546 16.5182 12.4308 16.6591 12.276C16.8618 12.5351 17.1529 12.7205 17.4867 12.7895C17.4946 12.8516 17.5 12.9145 17.5 12.9787Z" fill="white"/>
<path d="M6.95606 12.6237C7.68894 12.6237 8.3279 12.2283 8.67618 11.6404C8.72176 11.6584 8.7711 11.6691 8.82311 11.6691C9.04398 11.6691 9.22302 11.4901 9.22302 11.2692C9.22302 11.149 9.16887 11.0424 9.08489 10.9691C9.23644 10.9122 9.34483 10.7671 9.34483 10.5957C9.34483 10.4455 9.26108 10.3163 9.1387 10.2479C9.26108 10.1795 9.34483 10.0503 9.34483 9.9001C9.34483 9.70064 9.1984 9.53668 9.00745 9.50649C9.01586 9.4742 9.02175 9.4409 9.02175 9.40598C9.02175 9.18511 8.8427 9.00606 8.62183 9.00606C8.49594 9.00606 8.38503 9.06538 8.31172 9.1563C7.95515 8.82672 7.47989 8.62372 6.95605 8.62372C5.85149 8.62372 4.95605 9.51915 4.95605 10.6237C4.95605 11.7283 5.85149 12.6237 6.95606 12.6237ZM6.34845 10.7388C6.3723 10.6411 6.4574 10.5732 6.5576 10.5645C7.18534 10.5102 7.41236 10.1933 7.49376 9.99123C7.53153 9.89748 7.62668 9.83868 7.72724 9.849C7.94025 9.87083 8.09824 9.85153 8.21686 9.81412C8.36754 10.048 8.45606 10.3255 8.45606 10.6237C8.45606 11.4508 7.78316 12.1237 6.95606 12.1237C6.36319 12.1237 5.8511 11.7771 5.60772 11.2767C6.14272 11.1946 6.30408 10.9206 6.34845 10.7388Z" fill="white"/>
<path d="M23.0249 10.6237C23.0249 11.7283 23.9203 12.6237 25.0249 12.6237C26.1295 12.6237 27.0249 11.7283 27.0249 10.6237C27.0249 9.51915 26.1295 8.62372 25.0249 8.62372C23.9203 8.62372 23.0249 9.51915 23.0249 10.6237ZM24.6299 10.4399C24.7572 10.4399 24.8785 10.3864 24.9643 10.2924L25.1246 10.1168C25.2986 9.92607 25.5966 9.91927 25.7792 10.1018L25.9847 10.3073C26.0696 10.3922 26.1848 10.4399 26.3048 10.4399H26.5125C26.5199 10.5003 26.5249 10.5614 26.5249 10.6237C26.5249 11.4508 25.852 12.1237 25.0249 12.1237C24.1978 12.1237 23.5249 11.4508 23.5249 10.6237C23.5249 10.5614 23.5299 10.5003 23.5373 10.4399L24.6299 10.4399Z" fill="white"/>
<path d="M18.5692 21.7334V18.5364C18.5692 18.0081 18.7199 17.4907 19.0037 17.045L21.2981 13.4417C21.5016 13.1222 21.4214 12.7212 21.1547 12.4915L21.6016 11.2616C21.6116 11.2498 21.6238 11.2407 21.6316 11.2267C21.6539 11.1871 21.6602 11.1444 21.6597 11.102L24.0617 4.49207C24.0758 4.45326 24.0768 4.41397 24.0719 4.37566C24.0902 4.27913 24.0507 4.17691 23.9633 4.11987C23.8913 4.07288 22.1674 2.96265 19.3518 2.39758C16.757 1.87659 12.7159 1.75037 8.19865 4.10754C8.15277 4.13152 8.12156 4.16975 8.09864 4.2121C8.01545 4.27689 7.97726 4.38763 8.01518 4.49206L10.4886 11.2987C10.493 11.3099 10.4936 11.3218 10.4998 11.3326C10.5004 11.3337 10.5013 11.3344 10.5019 11.3354L10.9047 12.4438C10.5901 12.6617 10.4842 13.0992 10.7022 13.4417L12.9966 17.045C13.2804 17.4907 13.4311 18.0081 13.4311 18.5364V21.7334L11.6255 27.8587C11.4767 28.3634 11.7479 28.8965 12.2434 29.0735C12.728 29.2466 13.2644 29.0205 13.4789 28.5529L15.705 23.7001C15.7579 23.5847 15.8732 23.5107 16.0002 23.5107C16.1271 23.5107 16.2424 23.5847 16.2953 23.7001L18.5214 28.5529C18.7359 29.0205 19.2723 29.2466 19.7569 29.0735C20.2524 28.8965 20.5236 28.3634 20.3748 27.8587L18.5692 21.7334ZM23.5445 4.45143L21.2605 10.7366C18.8263 9.44831 15.1395 8.5231 10.8565 10.8472L8.54748 4.49292C16.2099 0.562045 22.5312 3.86423 23.5445 4.45143ZM18.1093 14.6392C17.5561 15.2101 16.7951 15.5324 16.0002 15.5324C15.2052 15.5324 14.4442 15.2101 13.891 14.6392L11.8514 12.5343C11.7265 12.4054 11.5617 12.3294 11.3894 12.3138L11.0293 11.3226C15.1838 9.03858 18.7532 9.95855 21.088 11.2111L20.688 12.3118C20.4885 12.309 20.2924 12.3862 20.1489 12.5343L18.1093 14.6392Z" fill="white"/>
<path d="M29.9886 9.7839C30.1503 9.33046 29.926 8.8301 29.4799 8.64907C29.0232 8.46376 28.5025 8.68077 28.3125 9.13557L27.0279 12.2115C26.7759 12.8148 26.1861 13.2076 25.5324 13.2076H24.0383C23.0697 13.2076 22.196 13.7895 21.8227 14.6833C21.2231 16.1189 20.3336 18.247 19.8491 19.3981C19.6609 19.845 19.8748 20.3588 20.3282 20.5428L20.349 20.5512C20.7892 20.7298 21.2902 20.5121 21.46 20.0684L22.5095 17.3256C22.5633 17.185 22.7729 17.2302 22.764 17.3805L22.1179 28.3442C22.0878 28.8419 22.4834 29.2621 22.982 29.2621C23.4037 29.2621 23.764 28.9583 23.8353 28.5427L24.9434 22.0804C24.9601 21.983 25.0445 21.9118 25.1433 21.9118C25.2421 21.9118 25.3266 21.983 25.3433 22.0804L26.4513 28.5427C26.5226 28.9583 26.8829 29.2621 27.3046 29.2621C27.8032 29.2621 28.1988 28.8419 28.1688 28.3442L27.5697 18.1792C27.5158 17.2659 27.6465 16.3512 27.9538 15.4895L29.9886 9.7839Z" fill="white"/>
<path d="M15.9999 4.88928C14.2391 4.88928 12.8066 6.32178 12.8066 8.08252C12.8066 8.22058 12.9186 8.33252 13.0566 8.33252C13.1947 8.33252 13.3066 8.22058 13.3066 8.08252C13.3066 6.59741 14.5148 5.38928 15.9999 5.38928C17.485 5.38928 18.6931 6.59741 18.6931 8.08252C18.6931 8.22058 18.8051 8.33252 18.9431 8.33252C19.0812 8.33252 19.1931 8.22058 19.1931 8.08252C19.1931 6.32178 17.7606 4.88928 15.9999 4.88928Z" fill="white"/>
<path d="M16 6.06006C14.8848 6.06006 13.9775 6.96729 13.9775 8.08252C13.9775 8.22058 14.0895 8.33252 14.2275 8.33252C14.3656 8.33252 14.4775 8.22058 14.4775 8.08252C14.4775 7.24304 15.1605 6.56006 16 6.56006C16.8395 6.56006 17.5225 7.24304 17.5225 8.08252C17.5225 8.22058 17.6344 8.33252 17.7725 8.33252C17.9105 8.33252 18.0225 8.22058 18.0225 8.08252C18.0225 6.96728 17.1152 6.06006 16 6.06006Z" fill="white"/>
<path d="M11.9849 8.33252C12.1229 8.33252 12.2349 8.22058 12.2349 8.08252C12.2349 6.00622 13.924 4.31714 16.0002 4.31714C18.0765 4.31714 19.7656 6.00623 19.7656 8.08252C19.7656 8.22058 19.8776 8.33252 20.0156 8.33252C20.1537 8.33252 20.2656 8.22058 20.2656 8.08252C20.2656 5.73059 18.3522 3.81714 16.0002 3.81714C13.6483 3.81714 11.7349 5.73059 11.7349 8.08252C11.7349 8.22058 11.8468 8.33252 11.9849 8.33252Z" fill="white"/>
<path d="M11.8002 19.2774L10.1292 14.8914C9.71807 13.8122 8.68313 13.0989 7.52819 13.0989H6.62359C5.97403 13.0989 5.37508 12.7483 5.0572 12.1818L3.45035 9.31843C3.1516 8.78605 2.41048 8.72175 2.02451 9.19474L2.01143 9.21076C1.7949 9.47613 1.74914 9.83433 1.8908 10.1405C2.52869 11.5192 4.26522 15.2832 4.26522 15.2832C4.71659 16.1277 4.67792 17.4943 4.43458 19.018C4.26432 20.0842 4.25272 20.7872 4.33489 21.71C4.4965 23.5252 4.69726 26.8377 4.78559 28.346C4.81145 28.7877 5.17709 29.1315 5.61955 29.1315H5.72279C6.17797 29.1315 6.54937 28.7672 6.55808 28.3121L6.67388 22.2661C6.67741 22.082 6.82749 21.9346 7.01158 21.9344C7.19544 21.9342 7.3458 22.0809 7.35006 22.2647L7.49009 28.3154C7.50059 28.7692 7.87144 29.1315 8.32531 29.1315C8.76701 29.1315 9.13238 28.7884 9.15919 28.3475C9.24935 26.8648 9.44351 23.6368 9.53636 21.8235C9.58431 20.8868 9.56675 19.8889 9.40692 19.018C9.17707 17.7657 9.12849 17.5003 9.07168 16.9899L10.2309 19.89C10.411 20.3406 10.9336 20.5462 11.3725 20.3392C11.7706 20.1513 11.9569 19.6887 11.8002 19.2774Z" fill="white"/>
</svg>
